Coordinates
version=1
nRows=10
nColumns=40
inDegrees=yes

Units are S.I. units (second, meters, Newtons, ...)
Angles are in degrees.

endheader
time	pelvis_tilt	pelvis_list	pelvis_rotation	pelvis_tx	pelvis_ty	pelvis_tz	hip_flexion_r	hip_adduction_r	hip_rotation_r	knee_angle_r	knee_angle_r_beta	ankle_angle_r	subtalar_angle_r	mtp_angle_r	hip_flexion_l	hip_adduction_l	hip_rotation_l	knee_angle_l	knee_angle_l_beta	ankle_angle_l	subtalar_angle_l	mtp_angle_l	lumbar_extension	lumbar_bending	lumbar_rotation	arm_flex_r	arm_add_r	arm_rot_r	elbow_flex_r	pro_sup_r	wrist_flex_r	wrist_dev_r	arm_flex_l	arm_add_l	arm_rot_l	elbow_flex_l	pro_sup_l	wrist_flex_l	wrist_dev_l
     35.89928571	     -2.75920476	     -5.32930224	      6.87092534	      0.93776553	      0.91947919	      0.56373455	      3.54110885	      6.26676350	    -17.03745380	     17.17950744	     17.17950744	     18.49443101	     -6.70840971	     -2.47272986	     29.14747480	     -8.82813366	      3.19008059	     23.97549980	     23.97549980	      5.34316419	     -9.50378308	      4.24239709	     -9.96655442	      3.56636726	      3.09040909	     44.72162941	    -18.59775496	    -10.86205440	     78.73038152	     44.73138489	      0.00000000	      0.00000000	    -18.04972631	     -7.74946217	      2.41919185	     29.31106467	     45.17954067	      0.00000000	      0.00000000
     35.91857143	     -2.94901182	     -5.40759617	      7.26279389	      0.93768887	      0.91830070	      0.56059651	      3.35989157	      6.19073477	    -17.26979579	     17.21545819	     17.21545819	     18.71405353	     -6.93287814	     -2.50583926	     29.15605699	     -8.63190157	      3.16618020	     24.06929203	     24.06929203	      5.11996481	     -9.34798992	      4.14733632	     -9.83393315	      3.47407374	      3.17441924	     45.72960136	    -18.54522067	    -10.86359209	     79.18860927	     44.72298091	      0.00000000	      0.00000000	    -17.72879227	     -7.81297210	      2.39345666	     29.40806252	     45.19146304	      0.00000000	      0.00000000
     35.93785714	     -3.11209233	     -5.42181908	      7.65551034	      0.93783162	      0.91722205	      0.55719668	      3.11395455	      6.04088324	    -17.45069435	     17.24113824	     17.24113824	     19.00045394	     -7.16585930	     -2.54524210	     29.16764681	     -8.35984989	      3.17596411	     24.37907899	     24.37907899	      5.02568377	     -9.26410768	      3.97530713	     -9.72982090	      3.35890816	      3.18519094	     46.47467476	    -18.39377402	    -10.81748271	     79.60211301	     44.71233624	      0.00000000	      0.00000000	    -17.25764918	     -7.85733346	      2.37369328	     29.58007368	     45.20375652	      0.00000000	      0.00000000
     35.95714286	     -3.23860638	     -5.41724000	      7.98828991	      0.93807247	      0.91630332	      0.55361731	      2.83572580	      5.85364959	    -17.61129469	     17.30584313	     17.30584313	     19.21721554	     -7.38495347	     -2.55165093	     29.20780242	     -8.07655011	      3.21353951	     24.92646461	     24.92646461	      5.06304327	     -9.28789714	      3.68742203	     -9.68370597	      3.21463426	      3.08676714	     47.22232409	    -18.18757998	    -10.75415645	     80.09077744	     44.69874123	      0.00000000	      0.00000000	    -16.58266771	     -7.90424196	      2.34778722	     29.84888030	     45.22020264	      0.00000000	      0.00000000
     35.97642857	     -3.27785906	     -5.55188299	      8.24183165	      0.93837944	      0.91538727	      0.54996890	      2.56028752	      5.78336121	    -17.71577982	     17.55252606	     17.55252606	     19.45146141	     -7.55269034	     -2.51587086	     29.40649414	     -7.96238602	      3.35144543	     25.94118898	     25.94118898	      5.23402475	     -9.47981986	      3.03963540	     -9.80867408	      3.27889238	      2.87767209	     48.01728186	    -17.81256904	    -10.64627054	     81.11125956	     44.67023905	      0.00000000	      0.00000000	    -16.05062944	     -7.89259973	      2.23459746	     30.28416285	     45.25031919	      0.00000000	      0.00000000
     35.99571429	     -3.50010950	     -5.47284384	      8.46631752	      0.93895111	      0.91488707	      0.54597291	      2.26627898	      5.48286300	    -17.83247015	     17.46139478	     17.46139478	     19.51977566	     -7.66808089	     -2.44180795	     29.42555197	     -7.56785917	      3.44402555	     26.43489274	     26.43489274	      5.47674943	     -9.61532234	      2.76844665	     -9.62500723	      3.10259613	      2.81107553	     48.27217486	    -17.60193591	    -10.55542335	     81.33574855	     44.66223846	      0.00000000	      0.00000000	    -15.18041741	     -7.91034778	      2.19193103	     30.71179718	     45.27154136	      0.00000000	      0.00000000
     36.01500000	     -3.58676642	     -5.53040769	      8.61260813	      0.93961973	      0.91453340	      0.54193667	      1.85744348	      5.29471306	    -18.08116218	     17.45370392	     17.45370392	     19.79004678	     -7.29760232	     -1.84910698	     29.51533139	     -7.26918640	      3.85268592	     27.30901900	     27.30901900	      5.64692114	    -10.40518638	      2.29407773	     -9.70410982	      3.09922128	      3.03506253	     48.25749399	    -17.80644552	    -10.64224923	     82.85611823	     44.65058203	      0.00000000	      0.00000000	    -14.84072841	     -8.03183684	      1.19082725	     33.23141036	     45.44283210	      0.00000000	      0.00000000
     36.03428571	     -3.82290961	     -5.46021368	      8.64753266	      0.94042688	      0.91445932	      0.53781965	      1.55295507	      4.96764557	    -18.09870796	     17.34543954	     17.34543954	     19.70946194	     -7.28517938	     -1.75854632	     29.45995031	     -6.90030656	      3.96118982	     27.74236921	     27.74236921	      6.08600954	    -10.64941738	      2.06692828	     -9.49693925	      2.97287581	      3.03733973	     48.40224486	    -17.60009982	    -10.54919526	     82.83968067	     44.64984922	      0.00000000	      0.00000000	    -13.87258077	     -8.03130970	      1.15812936	     33.67348735	     45.46309959	      0.00000000	      0.00000000
     36.05357143	     -3.91289728	     -5.45009324	      8.62500883	      0.94128282	      0.91473365	      0.53349964	      1.02833580	      4.64686125	    -18.47118047	     17.16005177	     17.16005177	     19.72798011	     -6.44285319	     -1.50758647	     29.35833710	     -6.47788126	      4.48610044	     28.41025364	     28.41025364	      6.64206673	    -11.71272682	      2.92342169	     -9.44587802	      2.93213858	      3.35924484	     48.66355731	    -17.79721730	    -10.68013062	     82.16157955	     44.70714916	      0.00000000	      0.00000000	    -13.37050051	     -8.14131274	      0.32858807	     36.24369548	     45.60350455	      0.00000000	      0.00000000
     36.07285714	     -4.02116241	     -5.47288034	      8.46524592	      0.94222385	      0.91516550	      0.52932959	      0.55907647	      4.39249146	    -18.42788499	     16.98851113	     16.98851113	     19.53448066	     -6.03273442	     -1.39469876	     29.18541178	     -6.22383553	      4.69113260	     28.91901732	     28.91901732	      7.08201668	    -12.25688131	      3.05360703	     -9.30887840	      2.98222740	      3.69616137	     48.80277935	    -17.85932432	    -10.67630491	     81.61354109	     44.73328911	      0.00000000	      0.00000000	    -12.40552646	     -8.19575816	      0.06479300	     37.36429423	     45.65808401	      0.00000000	      0.00000000
